# Blender v2.80 (sub 75) OBJ File: 'cubes.blend'
# www.blender.org
mtllib cube_map.mtl
o Cube
v 1.000000 1.000000 1.000000
v 1.000000 1.000000 -1.000000
v 1.000000 -1.000000 1.000000
v 1.000000 -1.000000 -1.000000
v -1.000000 1.000000 1.000000
v -1.000000 1.000000 -1.000000
v -1.000000 -1.000000 1.000000
v -1.000000 -1.000000 -1.000000
vt 0.500006 0.667324
vt 0.500008 1.000092
vt 0.249650 0.999980
vt 0.249599 0.667277
vt 0.749622 0.332712
vt 0.999998 0.332682
vt 0.999990 0.667325
vt 0.749633 0.667338
vt -0.000004 0.332759
vt 0.249661 0.332689
vt 0.000011 0.667377
vt 0.250641 -0.000524
vt 0.499891 -0.000524
vt 0.500006 0.332690
vn 0.0000 0.0000 -1.0000
vn 0.0000 1.0000 0.0000
vn 1.0000 0.0000 0.0000
vn 0.0000 0.0000 1.0000
vn -1.0000 0.0000 0.0000
vn 0.0000 -1.0000 0.0000
usemtl Material
s off
f 1/1/1 3/2/1 7/3/1 5/4/1
f 4/5/2 8/6/2 7/7/2 3/8/2
f 8/9/3 6/10/3 5/4/3 7/11/3
f 6/10/4 8/12/4 4/13/4 2/14/4
f 2/14/5 4/5/5 3/8/5 1/1/5
f 6/10/6 2/14/6 1/1/6 5/4/6
