# Blender v2.81 (sub 16) OBJ File: 'mattest.blend'
# www.blender.org
mtllib mattest.mtl
o Cube
v 1.000000 0.786767 0.748680
v 1.000000 0.786767 0.003544
v 1.000000 -0.786767 1.336774
v 1.000000 -0.786767 0.003544
v -1.000000 1.000000 2.000000
v -1.000000 1.000000 0.000000
v -1.000000 -1.000000 1.171602
v -1.000000 -1.000000 0.000000
v 0.000000 -1.000000 1.171602
v 1.000000 -0.076849 0.748680
v -1.000000 0.000000 1.171602
v 0.000000 1.000000 1.171602
v 0.000000 0.000000 2.000000
v -0.500000 -1.000000 1.171602
v 0.500000 1.000000 1.171602
v 1.000000 0.500000 0.748680
v -1.000000 -0.500000 1.171602
v 0.000000 -0.500000 1.171602
v 0.000000 0.500000 1.171602
v 0.500000 0.000000 1.171602
v -0.500000 0.000000 1.171602
v -0.250000 0.250000 2.000000
v 0.500000 0.500000 1.171602
v 0.250000 -0.250000 2.000000
v -0.500000 -0.500000 1.171602
v 0.000000 0.500000 3.400338
v 0.000000 0.000000 3.400338
v -0.500000 0.000000 3.400338
v 0.000000 -0.500000 3.400338
v 0.500000 0.000000 3.400338
v -0.250000 0.250000 3.400338
v 0.250000 -0.250000 3.400338
v 1.000000 1.000000 1.171602
v 1.000000 1.000000 0.000000
v 1.000000 -1.000000 2.000000
v 1.000000 -1.000000 0.000000
v 1.000000 0.000000 1.171602
v 1.000000 0.500000 1.171602
v 2.345562 0.786767 0.748680
v 2.345562 0.786767 0.003544
v 2.345562 -0.786767 1.336774
v 2.345562 -0.786767 0.003544
v 2.345562 -0.076849 0.748680
v 2.345562 0.500000 0.748680
vt 0.812500 0.687500
vt 0.875000 0.687500
vt 0.875000 0.750000
vt 0.812500 0.750000
vt 0.375000 0.750000
vt 0.625000 0.750000
vt 0.625000 0.875000
vt 0.625000 0.937500
vt 0.625000 1.000000
vt 0.375000 1.000000
vt 0.375000 0.000000
vt 0.625000 0.000000
vt 0.625000 0.062500
vt 0.625000 0.125000
vt 0.625000 0.250000
vt 0.375000 0.250000
vt 0.125000 0.500000
vt 0.375000 0.500000
vt 0.125000 0.750000
vt 0.418335 0.526654
vt 0.577378 0.526654
vt 0.577378 0.526654
vt 0.418335 0.526654
vt 0.625000 0.375000
vt 0.625000 0.437500
vt 0.625000 0.500000
vt 0.750000 0.625000
vt 0.750000 0.687500
vt 0.750000 0.687500
vt 0.750000 0.625000
vt 0.687500 0.562500
vt 0.750000 0.562500
vt 0.687500 0.625000
vt 0.718750 0.656250
vt 0.718750 0.656250
vt 0.750000 0.500000
vt 0.875000 0.500000
vt 0.781250 0.593750
vt 0.875000 0.625000
vt 0.812500 0.625000
vt 0.625000 0.562500
vt 0.625000 0.625000
vt 0.687500 0.500000
vt 0.750000 0.750000
vt 0.687500 0.625000
vt 0.750000 0.562500
vt 0.781250 0.593750
vt 0.812500 0.625000
vt 0.406234 0.723346
vt 0.586119 0.723346
vt 0.558105 0.634606
vt 0.575314 0.562500
vt 0.575314 0.562500
vt 0.558105 0.634606
vt 0.586119 0.723346
vt 0.406234 0.723346
vn 0.0000 0.0000 1.0000
vn 0.0000 -1.0000 0.0000
vn -1.0000 0.0000 0.0000
vn 0.0000 0.0000 -1.0000
vn 0.0000 1.0000 0.0000
vn 0.5378 0.5378 0.6492
vn 0.7071 -0.7071 0.0000
vn 0.6944 0.4166 0.5867
vn -0.4166 -0.6944 0.5867
vn -0.6944 -0.4166 0.5867
vn 0.4166 0.6944 0.5867
vn -0.5378 -0.5378 0.6492
vn -0.7071 0.7071 0.0000
vn 1.0000 0.0000 0.0000
vn 0.0000 0.6379 0.7701
usemtl Material_Base_4
s off
f 25/1/1 17/2/1 7/3/1 14/4/1
f 36/5/2 35/6/2 9/7/2 14/8/2 7/9/2 8/10/2
f 8/11/3 7/12/3 17/13/3 11/14/3 5/15/3 6/16/3
f 6/17/4 34/18/4 36/5/4 8/19/4
f 2/20/5 1/21/5 39/22/5 40/23/5
f 6/16/5 5/15/5 12/24/5 15/25/5 33/26/5 34/18/5
f 13/27/3 18/28/3 29/29/3 27/30/3
f 23/31/6 19/32/6 13/27/6 20/33/6
f 18/28/7 24/34/7 32/35/7 29/29/7
f 12/36/8 5/37/8 22/38/8 19/32/8
f 5/37/9 11/39/9 21/40/9 22/38/9
f 38/41/1 23/31/1 20/33/1 37/42/1
f 33/26/1 15/43/1 23/31/1 38/41/1
f 15/43/1 12/36/1 19/32/1 23/31/1
f 35/6/10 24/34/10 18/28/10 9/44/10
f 37/42/11 20/33/11 24/34/11 35/6/11
f 18/28/1 25/1/1 14/4/1 9/44/1
f 13/27/12 21/40/12 25/1/12 18/28/12
f 21/40/1 11/39/1 17/2/1 25/1/1
f 30/45/1 27/30/1 29/29/1 32/35/1
f 26/46/1 31/47/1 28/48/1 27/30/1
f 22/38/13 21/40/13 28/48/13 31/47/13
f 24/34/7 20/33/7 30/45/7 32/35/7
f 21/40/2 13/27/2 27/30/2 28/48/2
f 19/32/13 22/38/13 31/47/13 26/46/13
f 13/27/14 19/32/14 26/46/14 27/30/14
f 20/33/5 13/27/5 27/30/5 30/45/5
f 1/21/14 2/20/14 34/18/14 33/26/14
f 4/49/14 3/50/14 35/6/14 36/5/14
f 3/50/14 10/51/14 37/42/14 35/6/14
f 2/20/14 4/49/14 36/5/14 34/18/14
f 10/51/14 16/52/14 38/41/14 37/42/14
f 16/52/14 1/21/14 33/26/14 38/41/14
f 40/23/14 39/22/14 44/53/14 43/54/14 41/55/14 42/56/14
f 1/21/1 16/52/1 44/53/1 39/22/1
f 4/49/4 2/20/4 40/23/4 42/56/4
f 3/50/2 4/49/2 42/56/2 41/55/2
f 16/52/1 10/51/1 43/54/1 44/53/1
f 10/51/15 3/50/15 41/55/15 43/54/15
o Cube.001
v 2.000000 -1.000000 0.000000
v 2.316936 -0.156010 3.154642
v 2.000000 1.000000 0.000000
v 2.316936 0.156010 3.154642
v 4.000000 -1.000000 0.000000
v 3.683064 -0.683063 2.000000
v 4.000000 1.000000 0.000000
v 3.683064 0.683063 2.000000
v 2.000000 -1.000000 2.000000
v 2.000000 1.000000 2.000000
v 4.000000 1.000000 2.000000
v 4.000000 -1.000000 2.000000
v 2.316936 -0.156010 3.566161
v 2.316936 0.156010 3.566161
v 3.683064 0.683063 3.733027
v 3.683064 -0.683063 3.733027
v 2.316936 -0.683063 2.000000
v 2.316936 0.683063 2.000000
v 2.316936 -0.683063 3.733027
v 2.316936 0.683063 3.733027
v -0.099027 -0.156010 3.154642
v -0.099027 0.156010 3.154642
v -0.099027 -0.156010 3.566161
v -0.099027 0.156010 3.566161
v 0.000000 0.000000 2.907356
v 0.388173 -0.282021 3.203890
v -0.148266 -0.456323 3.203890
v -0.479807 0.000000 3.203892
v -0.148266 0.456323 3.203890
v 0.388173 0.282021 3.203890
v 0.148266 -0.456323 3.683704
v -0.388173 -0.282021 3.683704
v -0.388173 0.282021 3.683704
v 0.148266 0.456323 3.683704
v 0.479807 0.000000 3.683702
v 0.000000 0.000000 3.980238
v -0.087148 -0.268218 2.987471
v 0.228161 -0.165766 2.987471
v 0.141014 -0.433987 3.161770
v 0.456322 0.000000 3.161771
v 0.228161 0.165766 2.987471
v -0.282023 0.000000 2.987472
v -0.369173 -0.268219 3.161770
v -0.087148 0.268218 2.987471
v -0.369173 0.268219 3.161770
v 0.141014 0.433987 3.161770
v 0.510186 -0.165767 3.443797
v 0.510186 0.165767 3.443797
v 0.000000 -0.536441 3.443797
v 0.315312 -0.433990 3.443797
v -0.510186 -0.165767 3.443797
v -0.315312 -0.433990 3.443797
v -0.315312 0.433990 3.443797
v -0.510186 0.165767 3.443797
v 0.315312 0.433990 3.443797
v 0.000000 0.536441 3.443797
v 0.369173 -0.268219 3.725823
v -0.141014 -0.433987 3.725824
v -0.456322 0.000000 3.725823
v -0.141014 0.433987 3.725824
v 0.369173 0.268219 3.725823
v 0.087148 -0.268218 3.900123
v 0.282023 0.000000 3.900121
v -0.228161 -0.165766 3.900122
v -0.228161 0.165766 3.900122
v 0.087148 0.268218 3.900123
vt 0.375000 0.000000
vt 0.625000 0.000000
vt 0.625000 0.250000
vt 0.375000 0.250000
vt 0.625000 0.500000
vt 0.375000 0.500000
vt 0.625000 0.750000
vt 0.375000 0.750000
vt 0.625000 1.000000
vt 0.375000 1.000000
vt 0.125000 0.500000
vt 0.125000 0.750000
vt 0.664617 0.710383
vt 0.664617 0.539617
vt 0.664617 0.539617
vt 0.664617 0.710383
vt 0.835383 0.710383
vt 0.835383 0.539617
vt 0.875000 0.500000
vt 0.875000 0.750000
vt 0.835383 0.539617
vt 0.835383 0.710383
vt 0.835383 0.696911
vt 0.835383 0.553089
vt 0.835383 0.553089
vt 0.835383 0.696911
vt 0.994123 0.509623
vt 0.382413 0.459823
vt 0.263987 0.898692
vt 0.883257 0.937599
vt 0.835383 0.696911
vt 0.835383 0.696911
vt 0.835383 0.553089
vt 0.835383 0.553089
vt 0.818181 0.000000
vt 0.772726 0.078731
vt 0.863635 0.078731
vt 0.727272 0.157461
vt 0.681818 0.078731
vt 0.636363 0.157461
vt 0.090909 0.000000
vt 0.045454 0.078731
vt 0.136363 0.078731
vt 0.272727 0.000000
vt 0.227273 0.078731
vt 0.318182 0.078731
vt 0.454545 0.000000
vt 0.409090 0.078731
vt 0.500000 0.078731
vt 0.681818 0.236191
vt 0.909090 0.157461
vt 0.818181 0.157461
vt 0.863635 0.236191
vt 0.181818 0.157461
vt 0.090909 0.157461
vt 0.136363 0.236191
vt 0.363636 0.157461
vt 0.272727 0.157461
vt 0.318182 0.236191
vt 0.545454 0.157461
vt 0.454545 0.157461
vt 0.500000 0.236191
vt 0.772726 0.236191
vt 0.954545 0.236191
vt 0.227273 0.236191
vt 0.409090 0.236191
vt 0.590909 0.236191
vt 0.818181 0.314921
vt 0.727272 0.314921
vt 0.772726 0.393651
vt 1.000000 0.314921
vt 0.909091 0.314921
vt 0.954545 0.393651
vt 0.272727 0.314921
vt 0.181818 0.314921
vt 0.227273 0.393651
vt 0.454545 0.314921
vt 0.363636 0.314921
vt 0.409090 0.393651
vt 0.636363 0.314921
vt 0.545454 0.314921
vt 0.590909 0.393651
vt 0.500000 0.393651
vt 0.545454 0.472382
vt 0.318182 0.393651
vt 0.363636 0.472382
vt 0.136363 0.393651
vt 0.181818 0.472382
vt 0.090909 0.314921
vt 0.863635 0.393651
vt 0.909090 0.472382
vt 0.681818 0.393651
vt 0.727272 0.472382
vt 0.045454 0.236191
vt 0.000000 0.157461
vt 0.590909 0.078731
vt 0.636363 0.000000
vn -1.0000 0.0000 0.0000
vn 0.0000 1.0000 0.0000
vn 1.0000 0.0000 0.0000
vn 0.0000 -1.0000 0.0000
vn 0.0000 0.0000 -1.0000
vn 0.0000 0.0000 1.0000
vn 0.1024 -0.3151 -0.9435
vn 0.7002 -0.2680 -0.6617
vn -0.2680 -0.1947 -0.9435
vn -0.2680 0.1947 -0.9435
vn 0.1024 0.3151 -0.9435
vn 0.9050 -0.2680 -0.3304
vn 0.0247 -0.9435 -0.3304
vn -0.8897 -0.3151 -0.3304
vn -0.5746 0.7488 -0.3304
vn 0.5346 0.7779 -0.3304
vn 0.8026 -0.5831 -0.1256
vn -0.3066 -0.9435 -0.1256
vn -0.9921 0.0000 -0.1256
vn -0.3066 0.9435 -0.1256
vn 0.8026 0.5831 -0.1256
vn 0.4089 -0.6284 0.6617
vn -0.4713 -0.5831 0.6617
vn -0.7002 0.2680 0.6617
vn 0.0385 0.7488 0.6617
vn 0.7240 0.1947 0.6617
vn 0.2680 0.1947 0.9435
vn 0.4911 0.3568 0.7947
vn 0.4089 0.6284 0.6617
vn -0.1024 0.3151 0.9435
vn -0.1876 0.5773 0.7947
vn -0.4713 0.5831 0.6617
vn -0.3313 0.0000 0.9435
vn -0.6071 0.0000 0.7947
vn -0.7002 -0.2680 0.6617
vn -0.1024 -0.3151 0.9435
vn -0.1876 -0.5773 0.7947
vn 0.0385 -0.7488 0.6617
vn 0.2680 -0.1947 0.9435
vn 0.4911 -0.3568 0.7947
vn 0.7240 -0.1947 0.6617
vn 0.8897 0.3151 0.3304
vn 0.7947 0.5773 0.1876
vn 0.5746 0.7488 0.3304
vn -0.0247 0.9435 0.3304
vn -0.3035 0.9342 0.1876
vn -0.5346 0.7779 0.3304
vn -0.9050 0.2680 0.3304
vn -0.9822 0.0000 0.1876
vn -0.9050 -0.2680 0.3304
vn -0.5346 -0.7779 0.3304
vn -0.3035 -0.9342 0.1876
vn -0.0247 -0.9435 0.3304
vn 0.5746 -0.7488 0.3304
vn 0.7947 -0.5773 0.1876
vn 0.8897 -0.3151 0.3304
vn 0.3066 0.9435 0.1256
vn 0.3035 0.9342 -0.1876
vn 0.0247 0.9435 -0.3304
vn -0.8026 0.5831 0.1256
vn -0.7947 0.5773 -0.1876
vn -0.8897 0.3151 -0.3304
vn -0.8026 -0.5831 0.1256
vn -0.7947 -0.5773 -0.1876
vn -0.5746 -0.7488 -0.3304
vn 0.3066 -0.9435 0.1256
vn 0.3035 -0.9342 -0.1876
vn 0.5346 -0.7779 -0.3304
vn 0.9921 0.0000 0.1256
vn 0.9822 0.0000 -0.1876
vn 0.9050 0.2680 -0.3304
vn 0.4713 0.5831 -0.6617
vn 0.1876 0.5773 -0.7947
vn -0.0385 0.7488 -0.6617
vn -0.4089 0.6284 -0.6617
vn -0.4911 0.3568 -0.7947
vn -0.7240 0.1947 -0.6617
vn -0.7240 -0.1947 -0.6617
vn -0.4911 -0.3568 -0.7947
vn -0.4089 -0.6284 -0.6617
vn 0.7002 0.2680 -0.6617
vn 0.6071 0.0000 -0.7947
vn 0.3313 0.0000 -0.9435
vn -0.0385 -0.7488 -0.6617
vn 0.1876 -0.5773 -0.7947
vn 0.4713 -0.5831 -0.6617
usemtl Material_Base_0
s off
f 45/57/16 53/58/16 54/59/16 47/60/16
f 47/60/17 54/59/17 55/61/17 51/62/17
f 51/62/18 55/61/18 56/63/18 49/64/18
f 49/64/19 56/63/19 53/65/19 45/66/19
f 47/67/20 51/62/20 49/64/20 45/68/20
f 50/69/18 52/70/18 59/71/18 60/72/18
f 61/73/21 62/74/21 54/75/21 53/76/21
f 62/74/21 52/70/21 55/61/21 54/75/21
f 52/70/21 50/69/21 56/63/21 55/61/21
f 50/69/21 61/73/21 53/76/21 56/63/21
f 59/71/21 64/77/21 63/78/21 60/72/21
f 52/70/17 62/74/17 64/77/17 59/71/17
f 46/79/16 48/80/16 62/74/16 61/73/16
f 58/81/16 57/82/16 63/78/16 64/77/16
f 57/82/16 46/79/16 61/73/16 63/78/16
f 48/80/16 58/81/16 64/77/16 62/74/16
usemtl Material_Base_1
f 61/83/19 50/84/19 60/85/19 63/86/19
usemtl Material_Base_2
f 46/79/19 57/82/19 67/87/19 65/88/19
f 48/80/20 46/79/20 65/88/20 66/89/20
f 58/81/17 48/80/17 66/89/17 68/90/17
f 57/82/21 58/81/21 68/90/21 67/87/21
usemtl Material_Base_3
f 66/89/16 65/88/16 67/87/16 68/90/16
f 69/91/22 82/92/22 81/93/22
f 70/94/23 82/95/23 84/96/23
f 69/97/24 81/98/24 86/99/24
f 69/100/25 86/101/25 88/102/25
f 69/103/26 88/104/26 85/105/26
f 70/94/27 84/96/27 91/106/27
f 71/107/28 83/108/28 93/109/28
f 72/110/29 87/111/29 95/112/29
f 73/113/30 89/114/30 97/115/30
f 74/116/31 90/117/31 99/118/31
f 70/94/32 91/106/32 94/119/32
f 71/107/33 93/109/33 96/120/33
f 72/110/34 95/112/34 98/121/34
f 73/113/35 97/115/35 100/122/35
f 74/116/36 99/118/36 92/123/36
f 75/124/37 101/125/37 106/126/37
f 76/127/38 102/128/38 108/129/38
f 77/130/39 103/131/39 109/132/39
f 78/133/40 104/134/40 110/135/40
f 79/136/41 105/137/41 107/138/41
f 107/138/42 110/139/42 80/140/42
f 107/138/43 105/137/43 110/139/43
f 105/137/44 78/133/44 110/139/44
f 110/135/45 109/141/45 80/142/45
f 110/135/46 104/134/46 109/141/46
f 104/134/47 77/130/47 109/141/47
f 109/132/48 108/143/48 80/144/48
f 109/132/49 103/131/49 108/143/49
f 103/131/50 76/145/50 108/143/50
f 108/129/51 106/146/51 80/147/51
f 108/129/52 102/128/52 106/146/52
f 102/128/53 75/124/53 106/146/53
f 106/126/54 107/148/54 80/149/54
f 106/126/55 101/125/55 107/148/55
f 101/125/56 79/136/56 107/148/56
f 92/123/57 105/137/57 79/136/57
f 92/123/58 99/118/58 105/137/58
f 99/118/59 78/133/59 105/137/59
f 100/122/60 104/134/60 78/133/60
f 100/122/61 97/115/61 104/134/61
f 97/115/62 77/130/62 104/134/62
f 98/121/63 103/131/63 77/130/63
f 98/121/64 95/112/64 103/131/64
f 95/112/65 76/145/65 103/131/65
f 96/120/66 102/128/66 76/127/66
f 96/120/67 93/109/67 102/128/67
f 93/109/68 75/124/68 102/128/68
f 94/119/69 101/125/69 75/124/69
f 94/119/70 91/106/70 101/125/70
f 91/106/71 79/136/71 101/125/71
f 99/118/72 100/122/72 78/133/72
f 99/118/73 90/117/73 100/122/73
f 90/117/74 73/113/74 100/122/74
f 97/115/75 98/121/75 77/130/75
f 97/115/76 89/114/76 98/121/76
f 89/114/77 72/110/77 98/121/77
f 95/112/78 96/150/78 76/145/78
f 95/112/79 87/111/79 96/150/79
f 87/111/80 71/151/80 96/150/80
f 93/109/81 94/119/81 75/124/81
f 93/109/82 83/108/82 94/119/82
f 83/108/83 70/94/83 94/119/83
f 91/106/84 92/123/84 79/136/84
f 91/106/85 84/96/85 92/123/85
f 84/96/86 74/116/86 92/123/86
f 85/105/87 90/117/87 74/116/87
f 85/105/88 88/104/88 90/117/88
f 88/104/89 73/113/89 90/117/89
f 88/102/90 89/114/90 73/113/90
f 88/102/91 86/101/91 89/114/91
f 86/101/92 72/110/92 89/114/92
f 86/99/93 87/111/93 72/110/93
f 86/99/94 81/98/94 87/111/94
f 81/98/95 71/151/95 87/111/95
f 84/96/96 85/152/96 74/116/96
f 84/96/97 82/95/97 85/152/97
f 82/95/98 69/153/98 85/152/98
f 81/93/99 83/108/99 71/107/99
f 81/93/100 82/92/100 83/108/100
f 82/92/101 70/94/101 83/108/101
