# Blender v2.79 (sub 0) OBJ File: ''
# www.blender.org
mtllib tube.mtl
o Cylinder_Cylinder.001
v -1.000000 0.000000 0.000000
v -1.000000 0.000000 10.000000
v -0.500000 0.866025 0.000000
v -0.500000 0.866025 10.000000
v 0.500000 0.866025 0.000000
v 0.500000 0.866025 10.000000
v 1.000000 -0.000000 0.000000
v 1.000000 -0.000000 10.000000
v 0.500000 -0.866025 0.000000
v 0.500000 -0.866025 10.000000
v -0.500000 -0.866025 0.000000
v -0.500000 -0.866025 10.000000
v -1.000000 0.000000 0.966968
v -1.000000 0.000000 1.966968
v -1.000000 0.000000 2.966968
v -1.000000 0.000000 3.966968
v -1.000000 0.000000 4.966969
v -1.000000 0.000000 5.966969
v -1.000000 0.000000 6.966969
v -1.000000 0.000000 7.966969
v -1.000000 0.000000 8.966969
v -0.500000 0.866025 8.966969
v -0.500000 0.866025 7.966969
v -0.500000 0.866025 6.966969
v -0.500000 0.866025 5.966969
v -0.500000 0.866025 4.966969
v -0.500000 0.866025 3.966968
v -0.500000 0.866025 2.966968
v -0.500000 0.866025 1.966968
v -0.500000 0.866025 0.966968
v 0.500000 0.866025 8.966969
v 0.500000 0.866025 7.966969
v 0.500000 0.866025 6.966969
v 0.500000 0.866025 5.966969
v 0.500000 0.866025 4.966969
v 0.500000 0.866025 3.966968
v 0.500000 0.866025 2.966968
v 0.500000 0.866025 1.966968
v 0.500000 0.866025 0.966968
v 1.000000 -0.000000 8.966969
v 1.000000 -0.000000 7.966969
v 1.000000 -0.000000 6.966969
v 1.000000 -0.000000 5.966969
v 1.000000 -0.000000 4.966969
v 1.000000 -0.000000 3.966968
v 1.000000 -0.000000 2.966968
v 1.000000 -0.000000 1.966968
v 1.000000 -0.000000 0.966968
v 0.500000 -0.866025 8.966969
v 0.500000 -0.866025 7.966969
v 0.500000 -0.866025 6.966969
v 0.500000 -0.866025 5.966969
v 0.500000 -0.866025 4.966969
v 0.500000 -0.866025 3.966968
v 0.500000 -0.866025 2.966968
v 0.500000 -0.866025 1.966968
v 0.500000 -0.866025 0.966968
v -0.500000 -0.866025 8.966969
v -0.500000 -0.866025 7.966969
v -0.500000 -0.866025 6.966969
v -0.500000 -0.866025 5.966969
v -0.500000 -0.866025 4.966969
v -0.500000 -0.866025 3.966968
v -0.500000 -0.866025 2.966968
v -0.500000 -0.866025 1.966968
v -0.500000 -0.866025 0.966968
vn -0.8660 0.5000 0.0000
vn 0.0000 1.0000 0.0000
vn 0.8660 0.5000 0.0000
vn 0.8660 -0.5000 0.0000
vn -0.0000 0.0000 1.0000
vn 0.0000 -1.0000 0.0000
vn -0.8660 -0.5000 0.0000
vn 0.0000 0.0000 -1.0000
usemtl None
s off
f 21//1 2//1 4//1 22//1
f 22//2 4//2 6//2 31//2
f 31//3 6//3 8//3 40//3
f 40//4 8//4 10//4 49//4
f 4//5 2//5 12//5 10//5 8//5 6//5
f 49//6 10//6 12//6 58//6
f 58//7 12//7 2//7 21//7
f 1//8 3//8 5//8 7//8 9//8 11//8
f 11//7 66//7 13//7 1//7
f 66//7 65//7 14//7 13//7
f 65//7 64//7 15//7 14//7
f 64//7 63//7 16//7 15//7
f 63//7 62//7 17//7 16//7
f 62//7 61//7 18//7 17//7
f 61//7 60//7 19//7 18//7
f 60//7 59//7 20//7 19//7
f 59//7 58//7 21//7 20//7
f 9//6 57//6 66//6 11//6
f 57//6 56//6 65//6 66//6
f 56//6 55//6 64//6 65//6
f 55//6 54//6 63//6 64//6
f 54//6 53//6 62//6 63//6
f 53//6 52//6 61//6 62//6
f 52//6 51//6 60//6 61//6
f 51//6 50//6 59//6 60//6
f 50//6 49//6 58//6 59//6
f 7//4 48//4 57//4 9//4
f 48//4 47//4 56//4 57//4
f 47//4 46//4 55//4 56//4
f 46//4 45//4 54//4 55//4
f 45//4 44//4 53//4 54//4
f 44//4 43//4 52//4 53//4
f 43//4 42//4 51//4 52//4
f 42//4 41//4 50//4 51//4
f 41//4 40//4 49//4 50//4
f 5//3 39//3 48//3 7//3
f 39//3 38//3 47//3 48//3
f 38//3 37//3 46//3 47//3
f 37//3 36//3 45//3 46//3
f 36//3 35//3 44//3 45//3
f 35//3 34//3 43//3 44//3
f 34//3 33//3 42//3 43//3
f 33//3 32//3 41//3 42//3
f 32//3 31//3 40//3 41//3
f 3//2 30//2 39//2 5//2
f 30//2 29//2 38//2 39//2
f 29//2 28//2 37//2 38//2
f 28//2 27//2 36//2 37//2
f 27//2 26//2 35//2 36//2
f 26//2 25//2 34//2 35//2
f 25//2 24//2 33//2 34//2
f 24//2 23//2 32//2 33//2
f 23//2 22//2 31//2 32//2
f 1//1 13//1 30//1 3//1
f 13//1 14//1 29//1 30//1
f 14//1 15//1 28//1 29//1
f 15//1 16//1 27//1 28//1
f 16//1 17//1 26//1 27//1
f 17//1 18//1 25//1 26//1
f 18//1 19//1 24//1 25//1
f 19//1 20//1 23//1 24//1
f 20//1 21//1 22//1 23//1
